<svg width="1652" height="92" viewBox="0 0 1652 92" fill="none" xmlns="http://www.w3.org/2000/svg">
<path d="M459.116 67.7952C543.221 73.9408 609.436 65.9399 654.973 57.2433C721.188 44.6043 752.437 28.7186 837.587 14.92C892.302 5.99155 933.541 3.78842 970.366 1.8172C1003.71 0.0778839 1133.35 -5.60388 1308.88 18.9784C1378.46 28.7186 1467.79 44.9522 1570.25 73.477C1199.79 77.6513 829.455 81.7097 459 85.8841C459.116 79.8544 459.116 73.8248 459.116 67.7952Z" fill="#0F1954"/>
<path d="M1204.3 73.7952C1120.2 79.9408 1053.98 71.9399 1008.45 63.2433C942.232 50.6043 910.983 34.7186 825.833 20.92C771.118 11.9916 729.879 9.78842 693.054 7.8172C659.714 6.07788 530.072 0.396122 354.545 24.9784C284.961 34.7186 195.629 50.9522 93.1697 79.477C463.625 83.6513 833.964 87.7097 1204.42 91.8841C1204.3 85.8544 1204.3 79.8248 1204.3 73.7952Z" fill="#273170"/>
<path d="M2042 50.1117C1954.18 37.8205 1878.67 30.2835 1819.54 25.4134C1766.69 21.0071 1711.74 16.6009 1637.74 14.9775C1582.79 13.818 1541.79 14.6297 1473.95 16.1371C1405.99 17.6445 1371.95 18.3402 1325.25 21.9348C1257.64 27.1527 1202.35 34.9217 1188.18 37.0088C1138.46 44.198 1124.86 47.9085 1074.33 54.402C1039.13 58.9242 1010.32 61.5911 976.171 64.49C845.135 75.2737 752.899 82.9267 630.575 83.0427C564.012 83.1586 502.095 80.9555 476.422 80.0279C465.735 79.68 463.295 79.5641 348.29 74.3461C262.908 70.5196 255.822 70.1718 241.068 69.1282C177.293 64.49 131.059 57.3008 105.502 53.4743C48.5803 45.0097 -39.0095 33.8781 -169 23.0943C-168.768 45.3575 -168.651 67.6208 -168.419 89.9999C568.426 89.884 1305.15 89.884 2042 89.884C2042 76.6652 2042 63.3305 2042 50.1117Z" fill="#273170"/>
</svg>
