<svg width="110" height="110" viewBox="0 0 110 110" fill="none" xmlns="http://www.w3.org/2000/svg">
<path d="M52.0856 53.155L52.083 53.1524L85.447 19.7884L86.7328 21.0742L58.6053 49.2017C62.6556 47.8428 67.0648 48.025 70.9892 49.7135C74.9137 51.4021 78.0777 54.4783 79.8759 58.3536C81.6742 62.229 81.9804 66.6313 80.736 70.7183C79.4915 74.8053 76.7838 78.2899 73.131 80.5055C69.4781 82.721 65.1366 83.5119 60.9371 82.7268C56.7376 81.9417 52.975 79.6357 50.3693 76.2501C47.7636 72.8645 46.4978 68.637 46.8139 64.3765C47.1301 60.1159 49.0061 56.1216 52.083 53.1576L52.0856 53.155ZM12.5079 53.155L12.5066 53.1537L45.872 19.7884L47.1565 21.0729L19.0302 49.1991C23.0806 47.8402 27.4898 48.0224 31.4142 49.7109C35.3386 51.3994 38.5027 54.4757 40.3009 58.351C42.0992 62.2264 42.4054 66.6287 41.1609 70.7157C39.9165 74.8027 37.2088 78.2873 33.5559 80.5029C29.9031 82.7184 25.5615 83.5093 21.362 82.7242C17.1626 81.9391 13.4 79.6331 10.7943 76.2475C8.18861 72.8619 6.92273 68.6344 7.2389 64.3738C7.55506 60.1133 9.43106 56.1189 12.5079 53.155Z" fill="#EE1199"/>
</svg>
