<svg width="727" height="110" viewBox="0 0 727 110" fill="none" xmlns="http://www.w3.org/2000/svg">
<path d="M78.5974 97.5031C79.9667 98.968 80.6513 100.57 80.6513 102.31C80.6513 103.958 79.9667 105.468 78.5974 106.841C77.3194 108.123 75.6762 108.764 73.6679 108.764C72.5725 108.764 71.5227 108.581 70.5186 108.215C69.6057 107.757 68.8298 107.162 68.1908 106.429L28.8921 60.5618H14.2406V101.486C14.2406 103.5 13.556 105.194 12.1867 106.567C10.9087 107.94 9.2199 108.627 7.12032 108.627C5.11203 108.627 3.42323 107.94 2.05394 106.567C0.684646 105.194 0 103.5 0 101.486V8.51435C0 6.40865 0.684646 4.71494 2.05394 3.43321C3.42323 2.05992 5.11203 1.37328 7.12032 1.37328C9.2199 1.37328 10.9087 2.05992 12.1867 3.43321C13.556 4.71494 14.2406 6.40865 14.2406 8.51435V47.9276H28.3443L65.1783 3.70786C66.5476 2.05992 68.2364 1.23595 70.2447 1.23595C72.253 1.23595 73.8961 1.96837 75.1741 3.43321C76.3609 4.71494 76.9542 6.17977 76.9542 7.82771C76.9542 9.47565 76.3152 11.0778 75.0372 12.6342L40.3941 53.0087L78.5974 97.5031Z" fill="url(#paint0_linear)"/>
<path d="M180.397 98.6017C180.853 99.7919 181.081 100.845 181.081 101.76C181.081 103.683 180.442 105.331 179.164 106.704C177.886 107.986 176.243 108.627 174.235 108.627C172.866 108.627 171.542 108.26 170.264 107.528C169.077 106.704 168.21 105.605 167.662 104.232L135.621 24.9938L102.758 104.232C102.119 105.605 101.206 106.704 100.019 107.528C98.8326 108.26 97.5546 108.627 96.1853 108.627C94.177 108.627 92.4882 107.94 91.1189 106.567C89.8409 105.102 89.2019 103.408 89.2019 101.486C89.2019 100.57 89.4301 99.5173 89.8865 98.3271L128.364 6.17977C129.733 2.97544 131.969 1.37328 135.073 1.37328C138.359 1.37328 140.596 2.97544 141.783 6.17977L180.397 98.6017Z" fill="url(#paint1_linear)"/>
<path d="M277.471 3.98252C278.11 3.2501 278.932 2.65501 279.936 2.19725C280.94 1.64794 281.944 1.37328 282.948 1.37328C285.048 1.37328 286.737 2.05992 288.015 3.43321C289.384 4.71494 290.069 6.40865 290.069 8.51435V101.486C290.069 103.5 289.384 105.194 288.015 106.567C286.737 107.94 285.048 108.627 282.948 108.627C280.94 108.627 279.251 107.94 277.882 106.567C276.513 105.194 275.828 103.5 275.828 101.486V23.7578L210.376 106.155C209.737 106.887 208.915 107.482 207.911 107.94C206.907 108.398 205.903 108.627 204.899 108.627C202.799 108.627 201.019 107.94 199.558 106.567C198.189 105.194 197.504 103.5 197.504 101.486V8.51435C197.504 6.5002 198.189 4.80649 199.558 3.43321C201.019 2.05992 202.799 1.37328 204.899 1.37328C206.907 1.37328 208.55 2.05992 209.828 3.43321C211.106 4.71494 211.745 6.40865 211.745 8.51435V86.3795L277.471 3.98252Z" fill="url(#paint2_linear)"/>
<path d="M417.409 1.37328C419.418 1.37328 421.107 2.05992 422.476 3.43321C423.845 4.80649 424.53 6.5002 424.53 8.51435V101.486C424.53 103.5 423.799 105.194 422.339 106.567C420.97 107.94 419.326 108.627 417.409 108.627C415.401 108.627 413.712 107.94 412.343 106.567C410.974 105.194 410.289 103.5 410.289 101.486V33.2335L377.152 100.936C375.6 103.317 373.546 104.507 370.99 104.507C367.978 104.507 365.787 103.088 364.418 100.25L331.692 34.4694V101.486C331.692 103.5 331.007 105.194 329.638 106.567C328.269 107.94 326.58 108.627 324.571 108.627C322.563 108.627 320.874 107.94 319.505 106.567C318.136 105.194 317.451 103.5 317.451 101.486V8.51435C317.451 6.5002 318.136 4.80649 319.505 3.43321C320.874 2.05992 322.563 1.37328 324.571 1.37328C327.31 1.37328 329.41 2.65501 330.87 5.21847L371.538 86.9288L411.111 5.21847C412.571 2.65501 414.671 1.37328 417.409 1.37328Z" fill="url(#paint3_linear)"/>
<path d="M531.94 98.6017C532.396 99.7919 532.625 100.799 532.625 101.623C532.625 103.546 531.94 105.194 530.571 106.567C529.201 107.94 527.513 108.627 525.504 108.627C524.135 108.627 522.811 108.26 521.533 107.528C520.347 106.704 519.48 105.605 518.932 104.232L511.264 85.0062H462.106L454.301 104.232C453.662 105.605 452.749 106.704 451.563 107.528C450.376 108.26 449.098 108.627 447.729 108.627C445.72 108.627 444.032 107.94 442.662 106.567C441.384 105.102 440.745 103.408 440.745 101.486C440.745 100.57 440.973 99.5173 441.43 98.3271L479.907 6.17977C481.276 2.97544 483.513 1.37328 486.617 1.37328C489.903 1.37328 492.139 2.97544 493.326 6.17977L531.94 98.6017ZM506.471 73.196L486.89 24.3071L466.899 73.196H506.471Z" fill="url(#paint4_linear)"/>
<path d="M626.849 97.5031C628.218 98.968 628.903 100.57 628.903 102.31C628.903 103.958 628.218 105.468 626.849 106.841C625.571 108.123 623.928 108.764 621.92 108.764C620.824 108.764 619.774 108.581 618.77 108.215C617.857 107.757 617.081 107.162 616.443 106.429L577.144 60.5618H562.492V101.486C562.492 103.5 561.808 105.194 560.438 106.567C559.16 107.94 557.472 108.627 555.372 108.627C553.364 108.627 551.675 107.94 550.306 106.567C548.936 105.194 548.252 103.5 548.252 101.486V8.51435C548.252 6.40865 548.936 4.71494 550.306 3.43321C551.675 2.05992 553.364 1.37328 555.372 1.37328C557.472 1.37328 559.16 2.05992 560.438 3.43321C561.808 4.71494 562.492 6.40865 562.492 8.51435V47.9276H576.596L613.43 3.70786C614.799 2.05992 616.488 1.23595 618.496 1.23595C620.505 1.23595 622.148 1.96837 623.426 3.43321C624.613 4.71494 625.206 6.17977 625.206 7.82771C625.206 9.47565 624.567 11.0778 623.289 12.6342L588.646 53.0087L626.849 97.5031Z" fill="url(#paint5_linear)"/>
<path d="M690.851 0C697.788 0 703.768 0.915521 708.788 2.74656C713.9 4.57761 719.058 7.59883 724.261 11.8102C725.357 12.6342 726.087 13.5039 726.452 14.4195C726.817 15.2434 727 16.2505 727 17.4407C727 19.2717 726.315 20.7823 724.946 21.9725C723.668 23.1627 722.162 23.7578 720.427 23.7578C718.693 23.7578 717.096 23.1627 715.635 21.9725C711.892 18.7682 708.241 16.4794 704.681 15.1061C701.12 13.6413 696.51 12.9089 690.851 12.9089C683.73 12.9089 677.158 14.7857 671.133 18.5393C665.199 22.293 660.452 27.4199 656.892 33.9201C653.423 40.3288 651.689 47.3325 651.689 54.9313C651.689 62.6217 653.423 69.6712 656.892 76.0799C660.452 82.4885 665.199 87.5697 671.133 91.3233C677.158 95.077 683.73 96.9538 690.851 96.9538C699.614 96.9538 708.012 93.9326 716.046 87.8901C717.598 86.7915 719.104 86.2422 720.564 86.2422C722.299 86.2422 723.714 86.8831 724.809 88.1648C725.996 89.355 726.589 90.9571 726.589 92.9713C726.589 94.8939 725.859 96.5876 724.398 98.0524C714.539 106.017 703.357 110 690.851 110C681.083 110 672.137 107.574 664.013 102.722C655.979 97.8693 649.635 91.2318 644.979 82.809C640.324 74.3862 637.996 65.0936 637.996 54.9313C637.996 44.8606 640.324 35.6596 644.979 27.3283C649.635 18.9055 655.979 12.268 664.013 7.41572C672.137 2.47191 681.083 0 690.851 0Z" fill="url(#paint6_linear)"/>
<defs>
<linearGradient id="paint0_linear" x1="361.282" y1="0" x2="361.282" y2="110" gradientUnits="userSpaceOnUse">
<stop stop-color="#F37895"/>
<stop offset="1" stop-color="#FEBACC"/>
</linearGradient>
<linearGradient id="paint1_linear" x1="361.282" y1="0" x2="361.282" y2="110" gradientUnits="userSpaceOnUse">
<stop stop-color="#F37895"/>
<stop offset="1" stop-color="#FEBACC"/>
</linearGradient>
<linearGradient id="paint2_linear" x1="361.282" y1="0" x2="361.282" y2="110" gradientUnits="userSpaceOnUse">
<stop stop-color="#F37895"/>
<stop offset="1" stop-color="#FEBACC"/>
</linearGradient>
<linearGradient id="paint3_linear" x1="361.282" y1="0" x2="361.282" y2="110" gradientUnits="userSpaceOnUse">
<stop stop-color="#F37895"/>
<stop offset="1" stop-color="#FEBACC"/>
</linearGradient>
<linearGradient id="paint4_linear" x1="361.282" y1="0" x2="361.282" y2="110" gradientUnits="userSpaceOnUse">
<stop stop-color="#F37895"/>
<stop offset="1" stop-color="#FEBACC"/>
</linearGradient>
<linearGradient id="paint5_linear" x1="361.282" y1="0" x2="361.282" y2="110" gradientUnits="userSpaceOnUse">
<stop stop-color="#F37895"/>
<stop offset="1" stop-color="#FEBACC"/>
</linearGradient>
<linearGradient id="paint6_linear" x1="361.282" y1="0" x2="361.282" y2="110" gradientUnits="userSpaceOnUse">
<stop stop-color="#F37895"/>
<stop offset="1" stop-color="#FEBACC"/>
</linearGradient>
</defs>
</svg>
