<svg width="22" height="23" viewBox="0 0 22 23" fill="none" xmlns="http://www.w3.org/2000/svg">
<path d="M0.437734 20.334C-0.145611 20.9439 -0.145611 21.9327 0.437734 22.5425C1.02108 23.1524 1.96687 23.1524 2.55021 22.5425L11 13.7086L19.4498 22.5426C20.0331 23.1525 20.9789 23.1525 21.5623 22.5426C22.1456 21.9327 22.1456 20.944 21.5623 20.3341L13.1124 11.5001L21.5625 2.66591C22.1458 2.05605 22.1458 1.06726 21.5625 0.457398C20.9791 -0.152466 20.0334 -0.152466 19.45 0.457398L11 9.2916L2.54998 0.457468C1.96664 -0.152396 1.02085 -0.152396 0.437508 0.457468C-0.145836 1.06733 -0.145836 2.05612 0.437508 2.66598L8.88749 11.5001L0.437734 20.334Z" fill="white"/>
</svg>
