<svg width="80" height="71" viewBox="0 0 80 71" fill="none" xmlns="http://www.w3.org/2000/svg">
<path d="M55.4512 30.7913C55.4512 39.3118 48.5576 46.2173 40.0559 46.2173C31.5543 46.2173 24.6606 39.3118 24.6606 30.7913C24.6606 22.2708 31.5543 15.3652 40.0559 15.3652C48.5576 15.3652 55.4512 22.2708 55.4512 30.7913Z" fill="#EE1199" stroke="#EE1199"/>
<path d="M33.5389 25.0084L33.525 25.0076H33.5111C32.7693 25.0076 32.0716 25.2304 31.5116 25.7915C30.9482 26.3559 30.7237 27.0637 30.7678 27.8586C30.8132 28.6771 31.1793 29.4251 31.8482 30.0953L33.3657 31.6157L31.3419 33.6435L29.3437 31.6414C28.5934 30.8531 28.082 30.0908 27.8134 29.356C27.5637 28.5672 27.4356 27.8562 27.5011 27.1663C27.571 26.4316 27.7429 25.7895 28.0765 25.188C28.4291 24.552 28.8497 23.9913 29.2997 23.5399C30.6083 22.2651 31.9419 21.702 33.3496 21.7355C34.7555 21.7691 36.1359 22.4374 37.4957 23.7998L40.2633 26.5728L43.0525 29.3673L35.0819 37.3533L32.8337 35.1007L35.8472 32.0814L36.1998 31.7281L36.0876 31.6157L38.3157 29.3833L38.6682 29.0301L38.3157 28.6769L35.7776 26.1339C35.1071 25.4223 34.3577 25.054 33.5389 25.0084Z" fill="white" stroke="#EE1199"/>
<path d="M38.3892 41.0422L32.3841 35.0609L44.7823 22.5294C45.4537 21.8905 46.4855 21.9029 47.1074 22.526L50.9971 26.4232L50.997 26.4233L51.0054 26.4313C51.6177 27.0169 51.6297 28.0057 50.9971 28.6396L50.997 28.6395L50.989 28.648C50.405 29.2609 49.4198 29.273 48.7876 28.6396L47.2916 27.1407C46.797 26.6452 45.9563 26.6452 45.4618 27.1407L45.4244 27.1782L45.7783 27.5314L45.4244 27.1782L43.7039 28.9019L43.3514 29.2552L43.7039 29.6084L46.6212 32.5313C48.0559 33.9688 48.7603 35.427 48.7941 36.9107C48.8279 38.4378 48.2256 39.8442 46.929 41.1098C46.3959 41.6077 45.8343 42.0283 45.171 42.3781C44.5184 42.7223 43.8342 42.928 43.0775 42.997L43.0753 42.9972C42.3832 43.0632 41.5977 42.9325 40.7815 42.648L40.7815 42.648L40.7754 42.6459C39.9736 42.3782 39.2149 41.8695 38.3902 41.0432L38.3892 41.0422ZM40.1135 38.3771L40.1192 38.3828L40.1251 38.3883C40.7757 38.9994 41.5172 39.4135 42.3462 39.4599C43.1279 39.5057 43.8187 39.2253 44.3587 38.7294L44.3667 38.722L44.3743 38.7143C44.917 38.1706 45.2012 37.5099 45.1555 36.6846C45.1093 35.8513 44.6934 35.1049 44.0377 34.448L41.4945 31.8998L41.1406 31.5452L40.7867 31.8998L37.5702 35.1225L37.2177 35.4757L37.5702 35.8289L40.1135 38.3771Z" fill="white" stroke="#EE1199"/>
<path d="M40.0561 1.00033C44.9556 0.925381 46.0028 13.7412 48.5461 15.0902C51.4633 16.6266 63.3567 10.9682 66.274 16.1769C68.8546 20.7861 57.9336 27.7186 57.9336 30.6415C57.9336 33.6768 68.6676 40.9841 66.087 45.4059C63.5063 49.9027 51.8373 44.2068 48.9949 45.8181C46.2646 47.3545 45.2174 60.2827 40.2431 60.2452C35.381 60.2078 34.6704 47.2796 32.1272 45.9305C29.3221 44.3941 17.5035 50.1275 14.6611 45.0686C11.9682 40.2346 22.9266 33.1522 23.0388 30.1169C23.1136 27.3064 12.3422 20.3739 14.6611 16.1769C17.2417 11.5303 29.0229 16.9638 31.9776 15.315C34.5956 13.8536 35.3062 1.07527 40.0561 1.00033Z" stroke="#EE1199" stroke-width="0.8153"/>
<path d="M41.739 1.45001C46.6011 1.67485 46.8629 14.3782 49.3314 15.8771C52.099 17.5634 64.1046 12.617 66.6853 17.8257C68.9667 22.4724 57.8213 28.7304 57.6717 31.5784C57.4847 34.5762 67.6577 42.3706 64.8152 46.6425C61.9728 50.9144 50.8274 44.6564 47.9476 46.0804C45.1799 47.4295 43.4969 60.1328 38.5974 59.833C33.7727 59.5333 33.7353 46.7175 31.3043 45.1811C28.6488 43.5323 16.718 48.5536 14.2122 43.5323C11.8185 38.6982 22.9639 32.2529 23.2257 29.2925C23.4501 26.4445 13.2771 18.9874 15.8952 14.9403C18.7376 10.556 29.9578 16.5517 32.8751 15.0902C35.5679 13.7412 37.0266 1.22518 41.739 1.45001Z" stroke="#EE1199" stroke-width="0.8153"/>
<path d="M43.422 1.89962C48.2467 2.42424 47.7605 15.0152 50.1167 16.664C52.6974 18.4627 64.8526 14.3032 67.0966 19.4745C69.1163 24.1586 57.7465 29.7046 57.4099 32.5526C57.0733 35.5504 66.6852 43.832 63.581 47.9165C60.5141 52.0011 49.8549 45.1435 46.9751 46.3801C44.2074 47.5418 41.8512 60.0203 37.0639 59.4582C32.2392 58.8587 32.9124 46.1553 30.5562 44.469C28.0877 42.6703 16.0073 47.0172 13.8007 41.9958C11.6689 37.1618 23.0387 31.3909 23.4127 28.468C23.7867 25.6201 14.2121 17.6008 17.1294 13.7036C20.1962 9.54412 30.8554 16.1394 33.81 14.9028C36.5777 13.6662 38.7469 1.375 43.422 1.89962Z" stroke="#EE1199" stroke-width="0.8153"/>
<path d="M45.1051 2.31173C49.855 3.13614 48.6582 15.5772 50.9022 17.4134C53.3333 19.362 65.6007 15.9144 67.5081 21.0857C69.2285 25.7699 57.6343 30.6414 57.1855 33.4518C56.6619 36.4122 65.7129 45.2184 62.3468 49.1156C59.0182 52.9753 48.8826 45.5556 45.9653 46.6049C43.1977 47.6167 40.1682 59.8329 35.4932 59.0085C30.7059 58.1466 32.0523 45.5556 29.8083 43.682C27.4894 41.7709 15.2968 45.3683 13.4268 40.4218C11.5941 35.5878 23.1509 30.4915 23.6746 27.606C24.1982 24.7581 15.222 16.2142 18.4759 12.392C21.8045 8.49478 31.9027 15.6521 34.8199 14.6029C37.5502 13.5911 40.4674 1.48732 45.1051 2.31173Z" stroke="#EE1199" stroke-width="0.8153"/>
<path d="M46.8256 2.76148C51.5381 3.88568 49.5559 16.2143 51.7251 18.2004C54.0065 20.2989 66.3862 17.6008 67.957 22.7346C69.4156 27.4562 57.597 31.6532 56.9612 34.3887C56.288 37.3116 64.7779 46.6424 61.1127 50.3897C57.5222 54.0621 47.9102 46.0429 44.9556 46.9047C42.1879 47.7292 38.5227 59.7205 33.9224 58.6338C29.1725 57.5096 31.1921 44.9936 29.0229 42.9701C26.8537 40.9091 14.5488 43.832 12.978 38.8855C11.4446 34.014 23.1884 29.6297 23.8616 26.7817C24.5348 23.8963 16.1571 14.8278 19.7101 11.1554C23.2632 7.48309 32.8004 15.2775 35.755 14.3781C38.5601 13.5163 42.1879 1.63729 46.8256 2.76148Z" stroke="#EE1199" stroke-width="0.8153"/>
<path d="M48.5085 3.21107C53.1836 4.63504 50.4533 16.8138 52.5104 18.9872C54.6422 21.2356 67.134 19.2495 68.3682 24.3459C69.5277 29.105 57.4847 32.5899 56.6992 35.288C55.8764 38.2109 63.768 47.9914 59.8409 51.5888C55.9886 55.0738 46.9003 46.455 43.9456 47.1295C41.1406 47.7665 36.8395 59.5331 32.314 58.184C27.5641 56.7601 30.2944 44.394 28.2373 42.183C26.2177 40.0096 13.8007 42.183 12.5291 37.3116C11.2574 32.4401 23.2257 28.6927 24.0485 25.9197C24.9087 23.0343 17.0545 13.4037 20.9442 9.8438C24.7217 6.39628 33.7352 14.7902 36.6525 14.1157C39.5323 13.4412 43.9082 1.78709 48.5085 3.21107Z" stroke="#EE1199" stroke-width="0.8153"/>
<path d="M50.1917 3.62351C54.792 5.3098 51.3512 17.4136 53.296 19.7369C55.2782 22.0977 67.8822 20.8986 68.7799 25.9575C69.6401 30.754 57.3727 33.5645 56.475 36.1876C55.4652 39.073 62.8332 49.3781 58.6443 52.7882C54.5676 56.0858 45.9655 46.8674 42.9734 47.3171C40.1684 47.7668 35.1941 59.3085 30.7808 57.6971C26.0683 55.9734 29.4718 43.7572 27.4895 41.3589C25.6195 39.073 13.1277 40.5345 12.1553 35.663C11.1828 30.7915 23.3755 27.7187 24.3105 25.0206C25.3203 22.1352 18.0272 11.9425 22.2534 8.53248C26.2179 5.3098 34.7453 14.3408 37.6625 13.8162C40.5424 13.3665 45.6289 1.93722 50.1917 3.62351Z" stroke="#EE1199" stroke-width="0.8153"/>
<path d="M51.8749 4.07318C56.4377 6.05925 52.2489 18.0132 54.0815 20.5239C55.9141 23.0345 68.6304 22.5474 69.2288 27.6063C69.7898 32.4028 57.3354 34.5388 56.2507 37.1244C55.0539 39.9724 61.8982 50.8021 57.4102 54.0248C53.0717 57.0976 44.9931 47.3171 42.0011 47.5794C39.196 47.8417 33.5859 59.1586 29.2475 57.3224C24.5724 55.3363 28.6491 43.2325 26.779 40.6469C25.0586 38.2486 12.4546 38.9981 11.7814 34.1266C11.1081 29.2176 23.4878 26.8568 24.5724 24.1962C25.7318 21.2733 19.0371 10.5185 23.5626 7.29586C27.7514 4.29802 35.7178 13.9286 38.635 13.6288C41.5149 13.2915 47.3494 2.08711 51.8749 4.07318Z" stroke="#EE1199" stroke-width="0.8153"/>
<path d="M53.5577 4.52292C58.0832 6.80877 53.1463 18.6503 54.8668 21.3108C56.5498 23.934 69.3408 24.2337 69.64 29.2551C69.9018 34.0892 57.223 35.5131 55.9888 38.0988C54.6424 40.9093 60.9257 52.2636 56.1384 55.2989C51.5755 58.1843 43.9832 47.8043 40.9537 47.8792C38.1487 47.9917 31.8654 59.0087 27.6391 56.9477C22.964 54.6619 27.7139 42.708 25.9561 39.935C24.3478 37.4243 11.669 37.4243 11.3324 32.6277C10.9584 27.7187 23.525 26.0325 24.7592 23.4093C26.1057 20.4864 19.9346 9.16957 24.7966 6.05931C29.2099 3.2863 36.6526 13.5539 39.5699 13.404C42.5245 13.2167 49.0697 2.23706 53.5577 4.52292Z" stroke="#EE1199" stroke-width="0.8153"/>
<path d="M10.8836 31.0163C10.8088 26.1073 23.5998 25.0581 24.9463 22.5099C26.4797 19.587 20.8322 7.67058 26.0309 4.74768C30.6312 2.16204 37.5503 13.1042 40.4675 13.1042C43.497 13.1042 50.7527 2.34941 55.2034 4.93505C59.6915 7.52069 54.0066 19.2123 55.6148 22.0602C57.1482 24.7958 70.0515 25.845 70.0141 30.8289C69.9767 35.7004 57.0734 36.4124 55.727 38.9606C54.1936 41.7711 59.9159 53.6125 54.8668 56.4605C50.0421 59.1586 42.9734 48.179 39.9439 48.0665C37.1389 47.9916 30.2198 58.7838 26.0309 56.4605C21.3932 53.8749 26.8163 42.0708 25.1707 39.1105C23.7121 36.5248 10.9584 35.7754 10.8836 31.0163Z" stroke="#EE1199" stroke-width="0.8153"/>
<path d="M3.72214 38.5385L3.72213 38.5384L3.71126 38.5399C2.5888 38.6898 2.005 38.6206 1.68364 38.4225L1.67672 38.4182L1.66966 38.4142C1.36091 38.2374 1.05226 37.7385 0.906736 36.6814L0.906741 36.6814L0.906401 36.679L0.565332 34.2869L8.8153 33.0822L9.41958 37.2295L8.6909 37.3406L8.31196 34.6196L8.24136 34.1127L7.73625 34.1951L6.12802 34.4574L5.54882 34.5519L5.73408 35.1087C5.83507 35.4123 5.9018 35.7133 5.93538 36.0498L5.9367 36.0629L5.9387 36.076C6.07138 36.9401 5.89932 37.4819 5.54898 37.8642C5.24822 38.1612 4.66791 38.4332 3.72214 38.5385ZM4.67089 37.2531L4.68802 37.2428L4.70427 37.2311C4.90188 37.0897 5.06187 36.9044 5.15814 36.6633C5.25185 36.4286 5.27128 36.1758 5.24784 35.9175L5.24668 35.9047L5.24488 35.8921C5.20263 35.5958 5.11989 35.3057 5.04781 35.053L5.04371 35.0386L4.92354 34.6172L4.48999 34.6811L1.94675 35.0558L1.45439 35.1283L1.52464 35.621L1.59944 36.1457L1.59931 36.1457L1.60121 36.1571C1.6759 36.6061 1.80984 37.1108 2.22812 37.3902C2.60783 37.6438 3.06091 37.6635 3.56061 37.58C4.00028 37.5066 4.3912 37.4212 4.67089 37.2531Z" fill="#EE1199" stroke="#EE1199"/>
<path d="M3.51724 46.263L3.18338 45.3338L4.39413 44.9025L4.86886 44.7334L4.696 44.26L4.13499 42.7236L3.96484 42.2576L3.49753 42.4241L2.28423 42.8564L1.94916 41.9238L3.1599 41.4925L3.15991 41.4925L3.16196 41.4917C6.20659 40.3921 8.58106 40.1457 10.3434 40.6713L10.4995 41.121H9.72423C8.10568 41.121 6.51368 41.3528 4.99213 41.9L4.51935 42.0701L4.69168 42.542L5.25269 44.0784L5.42336 44.5458L5.89158 44.3774C7.4015 43.8343 8.80099 43.0563 10.047 42.0029L10.6335 41.5071L10.7772 41.921C9.67155 43.463 7.66493 44.7712 4.69369 45.8344L4.69368 45.8344L4.69098 45.8354L3.51724 46.263Z" fill="#EE1199" stroke="#EE1199"/>
<path d="M12.0804 47.0921C12.23 47.3918 12.2674 47.6167 12.1926 47.7666C12.1552 47.9165 11.9682 48.0664 11.7064 48.2162C11.295 48.4786 10.9958 48.4786 10.734 48.2912L12.0804 47.0921ZM12.0804 47.0921C11.8934 46.7548 11.669 46.6049 11.4072 46.6424L12.0804 47.0921ZM11.1935 48.9215C11.4635 48.9056 11.7206 48.7986 11.965 48.6443C12.1062 48.5629 12.248 48.4701 12.3662 48.3648C12.4697 48.2726 12.5987 48.133 12.6618 47.9425C12.8184 47.5732 12.6775 47.1688 12.5278 46.8688L12.5229 46.8591L12.5177 46.8496C12.2847 46.4295 11.8961 46.0673 11.3364 46.1474L11.2916 46.1538L11.2488 46.1681C11.1502 46.2011 11.0011 46.2633 10.8021 46.3691L10.3454 45.5821C10.37 45.5673 10.3876 45.5577 10.3969 45.553L10.4141 45.5444L10.4306 45.5345C11.0956 45.1347 11.6106 45.0809 11.9859 45.2019C12.3149 45.3331 12.7235 45.7041 13.1858 46.4511C13.6592 47.2551 13.8039 47.8002 13.7546 48.1457L13.754 48.1503C13.7099 48.4815 13.4279 48.8984 12.6485 49.3599L12.6485 49.3598L12.6421 49.3637C12.1086 49.6904 11.5811 49.7115 11.0701 49.4555L10.4007 49.1201L10.3475 49.867C10.3151 50.3211 10.1897 50.6526 9.98596 50.8823L9.95499 50.9172L9.93101 50.9572C9.77016 51.2258 9.48157 51.4736 9.01536 51.7613C8.11532 52.3019 7.51968 52.4009 7.16038 52.3049C6.80159 52.209 6.32847 51.8023 5.77813 50.8837C5.32511 50.1151 5.20949 49.5248 5.3048 49.0678C5.39785 48.6216 5.71639 48.1886 6.39132 47.7829C6.55657 47.6835 6.7008 47.603 6.82513 47.5393L7.32219 48.3821C7.10322 48.5189 6.91943 48.6414 6.77116 48.7513C6.6531 48.8387 6.54739 48.9255 6.4612 49.0118C6.38104 49.0921 6.28603 49.2029 6.23035 49.3424C6.05997 49.7692 6.26055 50.188 6.40999 50.45C6.60152 50.7859 6.89103 51.0664 7.26969 51.1422C7.64573 51.2176 8.00889 51.0589 8.28686 50.9001L8.95596 50.5276C9.21749 50.3844 9.44038 50.1933 9.57838 49.9412C9.72146 49.6798 9.74977 49.3951 9.6887 49.1198L9.68312 49.0946L9.67499 49.0702C9.63595 48.9528 9.53937 48.7335 9.36614 48.4272L9.96838 48.0714C10.0107 48.1385 10.0501 48.2002 10.0866 48.256C10.1824 48.4022 10.2828 48.5469 10.3801 48.6444L10.4093 48.6737L10.443 48.6978C10.6543 48.849 10.9057 48.9384 11.1935 48.9215Z" fill="#EE1199" stroke="#EE1199"/>
<path d="M17.7164 52.6959L18.3742 53.4304C17.4625 54.1704 16.3468 54.5265 15.06 54.462L14.5752 54.4377L14.5365 54.9216C14.4685 55.7743 14.198 56.5842 13.6579 57.3283L13.6578 57.3282L13.6503 57.3391C13.3265 57.8109 12.8395 58.3498 12.1495 59.0066L11.5114 58.2942C12.0776 57.7694 12.4969 57.3443 12.7889 57.0193L12.7962 57.0111L12.8032 57.0027C13.3701 56.3129 13.7382 55.5782 13.9439 54.8774L14.0796 54.415L13.6225 54.2623C13.521 54.2284 13.4092 54.1936 13.31 54.1627C13.2487 54.1435 13.1921 54.1259 13.1457 54.1109C13.0054 54.0656 12.9045 54.0281 12.8279 53.9897L12.5233 53.8372L12.2699 54.0647L9.76251 56.3159L9.12036 55.599L15.3334 50.0098L15.9754 50.7266L13.3914 53.0535L12.6466 53.7241L13.6303 53.9158C15.0415 54.1907 16.4109 53.7347 17.7164 52.6959Z" fill="#EE1199" stroke="#EE1199"/>
<path d="M14.6174 61.222L19.6703 55.0269L20.4645 55.671L15.4116 61.8661L14.6174 61.222Z" fill="#EE1199" stroke="#EE1199"/>
<path d="M23.2586 65.976L22.1048 68.0253L21.4352 67.6326L21.9778 66.6747L22.221 66.2455L21.7951 65.9965L18.6534 64.1604L18.2159 63.9046L17.9661 64.3456L17.4308 65.2905L16.7655 64.9002L17.9441 62.8795L18.1472 62.9993L18.588 63.259L18.8376 62.8124C19.3485 61.8983 19.8602 61.1285 20.3017 60.5016C20.9501 59.6364 21.5811 59.0107 22.1901 58.6029C22.8943 58.1549 23.6554 57.9204 24.5155 57.8989L26.3577 58.9659L22.793 65.1286L22.5429 65.5609L22.9749 65.8115L23.2586 65.976ZM21.2582 64.8393L21.6883 65.0839L21.9374 64.6564L24.9294 59.5226L25.4892 58.5622L24.3992 58.7806C23.9954 58.8615 23.5852 58.984 23.2094 59.1514L23.2027 59.1544L23.1961 59.1575C22.6343 59.4277 22.0745 59.931 21.5072 60.6208C20.9353 61.3163 20.3302 62.2332 19.6863 63.3716L19.4408 63.8058L19.8744 64.0524L21.2582 64.8393Z" fill="#EE1199" stroke="#EE1199"/>
<path d="M37.807 66.2605L37.8065 66.2635C37.6102 67.3363 37.2675 68.006 36.8488 68.378C36.4525 68.7302 35.9192 68.876 35.1739 68.7474C34.8401 68.6801 34.5487 68.5813 34.296 68.4546L33.7044 68.1583L33.5808 68.8083L33.3738 69.8972L32.4512 69.7341L32.6558 68.6578L32.7823 67.9926L32.1093 68.0675C31.8073 68.1011 31.4921 68.0981 31.2261 68.0389L31.2188 68.0373L31.2116 68.0359C30.4421 67.8883 29.985 67.5557 29.7362 67.0849C29.4746 66.5899 29.3934 65.8497 29.5892 64.7969C29.7842 63.767 30.1316 63.1251 30.5738 62.7721C31.0003 62.4317 31.6032 62.2909 32.4814 62.4601L32.4823 62.4603L33.2677 62.6102L33.7606 62.7043L33.8529 62.211L33.9862 61.4985L34.9089 61.6616L34.7774 62.3643L34.6857 62.8541L35.1751 62.9475L35.9605 63.0973L35.9678 63.0987L35.9751 63.0999C36.8101 63.2338 37.3219 63.5685 37.6037 64.0355C37.8944 64.5173 38.0006 65.2382 37.807 66.2605ZM32.5088 67.4088L32.856 67.3508L32.9185 67.0044L33.4795 63.8941L33.5653 63.418L33.0924 63.3165L32.5688 63.2041L32.5518 63.2004L32.5347 63.198C31.9966 63.121 31.4083 63.1146 30.9993 63.5927L30.9937 63.5992L30.9885 63.6058C30.8583 63.7688 30.7705 63.9761 30.7037 64.1768C30.6344 64.3853 30.5738 64.6309 30.5162 64.8999L30.5132 64.9142L30.511 64.9286C30.4375 65.4073 30.386 65.8529 30.4354 66.1993L30.4367 66.2086L30.4384 66.218C30.4879 66.4908 30.5937 66.7509 30.7808 66.9617C30.9704 67.1755 31.2184 67.3098 31.4998 67.3673C31.8918 67.454 32.2171 67.4575 32.5088 67.4088ZM36.8653 64.6968L36.8624 64.688L36.8592 64.6793C36.6539 64.131 36.13 63.8884 35.5608 63.7662L35.5439 63.7625L35.5267 63.7601L35.0031 63.6851L34.5258 63.6168L34.4402 64.0913L33.8792 67.2016L33.821 67.5241L34.0935 67.7061C34.4018 67.9121 34.743 68.0035 35.0814 68.0471C35.3621 68.0959 35.6496 68.0757 35.9136 67.9435C36.182 67.809 36.3722 67.5857 36.5017 67.3262C36.6449 67.0392 36.767 66.6122 36.846 66.1032C36.9597 65.5287 36.9825 65.049 36.8653 64.6968Z" fill="#EE1199" stroke="#EE1199"/>
<path d="M40.9035 69.12L40.9844 70.4168L40.0006 70.4726L39.9195 69.1722C39.7427 65.9094 40.185 63.561 41.1563 62.0407L41.6575 62.0099L41.4098 62.8373C40.9446 64.3908 40.7508 65.9837 40.8283 67.6137L40.8526 68.1244L41.3626 68.0887L42.9708 67.9763L43.4586 67.9422L43.4354 67.4538C43.3575 65.8148 42.9681 64.2585 42.3497 62.787L42.0139 61.9881L42.4838 61.9592C43.6399 63.4588 44.3543 65.7465 44.531 68.9257L44.5852 70.2289L43.591 70.2852L43.5098 68.9828L43.4792 68.4915L42.9875 68.5144L41.3793 68.5894L40.8719 68.613L40.9035 69.12Z" fill="#EE1199" stroke="#EE1199"/>
<path d="M51.0365 65.6129C50.8272 66.1009 50.407 66.4577 49.6624 66.6542C49.3264 66.729 49.0202 66.7963 48.6832 66.8301L48.108 66.8877L48.2479 67.4487L48.7633 69.5144L47.822 69.7548L45.7515 61.6574L47.8073 61.1424L47.8073 61.1426L47.819 61.1393C48.8326 60.8592 49.5073 60.9653 49.9287 61.282L49.9493 61.2975L49.9715 61.3108C50.3528 61.54 50.7228 62.116 51.016 63.2535C51.2846 64.3309 51.2592 65.0935 51.0365 65.6129ZM50.0764 63.4892L50.0765 63.4892L50.0741 63.4807C49.9967 63.2091 49.9148 62.9603 49.8227 62.7485C49.7329 62.5421 49.6187 62.3359 49.4609 62.1779C49.037 61.7531 48.4602 61.6801 47.8598 61.8592L47.3565 61.9673L46.8484 62.0763L46.977 62.5798L47.7998 65.8025L47.9108 66.2373L48.3551 66.1738L48.3681 66.1719C48.6211 66.1357 48.9105 66.0943 49.2045 66.0104C49.4807 65.9344 49.7394 65.7955 49.9285 65.5649C50.1034 65.3515 50.1887 65.0962 50.2032 64.8264C50.2521 64.6443 50.2486 64.4469 50.231 64.2707C50.2087 64.0465 50.1548 63.7838 50.0764 63.4892Z" fill="#EE1199" stroke="#EE1199"/>
<path d="M57.4468 60.5842C57.6089 61.2742 57.9276 62.1056 58.4714 63.0405L59.6847 65.2225L58.8755 65.673L57.6599 63.487L57.6594 63.4861C57.124 62.5281 56.6118 61.8103 56.1182 61.3158C55.4857 60.682 54.658 60.233 53.6979 59.9525L52.5683 59.6224L53.4436 59.1291C54.4155 59.3807 55.208 59.7833 55.8409 60.3541L56.9477 61.3521L56.6668 59.8885C56.5094 59.0684 56.5853 58.1697 56.8889 57.2131L57.8412 56.6764L57.5606 57.8007C57.3214 58.7596 57.2773 59.6952 57.4424 60.5633L57.4444 60.5738L57.4468 60.5842ZM53.121 60.6759L56.6169 66.9458L55.7334 67.4355L51.6565 60.1363L52.5419 59.6373L53.121 60.6759ZM57.9041 56.6409L58.6822 56.2024L62.8571 63.464L61.9797 63.9503L58.4825 57.6782L57.9041 56.6409Z" fill="#EE1199" stroke="#EE1199"/>
<path d="M62.0797 52.9863L64.1665 50.7259L64.7524 51.2795L63.6589 52.4905L63.3282 52.8567L63.6899 53.1922L68.8551 57.9827L68.1964 58.6794L62.0797 52.9863Z" fill="#EE1199" stroke="#EE1199"/>
<path d="M70.9397 52.084L72.7293 53.2388L72.218 54.0439L65.2068 49.528L66.3579 47.7373L66.358 47.7374L66.3634 47.7286C66.9103 46.8381 67.4699 46.4746 68.0232 46.3887C68.4832 46.3374 69.1429 46.5233 70.1205 47.1399C71.0485 47.7301 71.5499 48.3088 71.7398 48.8466C71.9197 49.3561 71.8498 49.916 71.4272 50.5674L71.4271 50.5673L71.4224 50.5749C71.2585 50.8377 71.059 51.0722 70.8309 51.3389L70.4589 51.7737L70.9397 52.084ZM68.327 47.4216L68.2918 47.4166H68.2562C67.6663 47.4166 67.2272 47.7338 66.9021 48.2434L66.6057 48.6889L66.324 49.1122L66.7521 49.3867L69.5571 51.1855L69.8963 51.4029L70.1809 51.1178C70.4032 50.895 70.5762 50.635 70.7186 50.4208C70.7223 50.4153 70.7259 50.4099 70.7295 50.4045C71.0838 49.872 71.0174 49.2541 70.6221 48.795C70.4144 48.5392 70.0498 48.2761 69.6185 47.988C69.1365 47.666 68.6909 47.4737 68.327 47.4216Z" fill="#EE1199" stroke="#EE1199"/>
<path d="M71.28 40.5837L71.2799 40.5838L71.2928 40.5888C72.7232 41.14 73.848 41.7233 74.709 42.2982C75.7346 42.9946 76.5352 43.8394 77.0901 44.7709L76.0529 47.3838L75.3346 47.1057L75.5299 46.5969L75.8107 45.8655L75.029 45.9189C73.4832 46.0245 71.6913 45.6743 69.603 44.83L69.603 44.83L69.5999 44.8288L68.2656 44.2996L68.617 43.3916C69.1601 43.6021 69.6139 43.7816 69.9795 43.9262C70.0551 43.9561 70.1269 43.9845 70.195 44.0114C70.4375 44.1072 70.6354 44.1848 70.7848 44.241C70.897 44.2832 71.0132 44.3256 71.1039 44.3491C72.3545 44.8027 73.3961 45.0368 74.2263 45.1164C74.6001 45.1577 74.9709 45.157 75.3747 45.1165L76.3269 45.0211L75.7048 44.294C75.4553 44.0023 75.1688 43.7562 74.9149 43.5383L74.9026 43.5277L74.9028 43.5276L74.8925 43.5193C74.2391 42.9874 73.29 42.4784 72.0422 41.948L72.0423 41.9479L72.0326 41.944C71.9897 41.9268 71.9112 41.896 71.7967 41.8512C71.4305 41.7077 70.6963 41.42 69.5784 40.9694L69.9535 40.0299L71.28 40.5837Z" fill="#EE1199" stroke="#EE1199"/>
<path d="M78.8239 38.9555L78.6577 39.918L70.4445 38.4796L71.2419 33.9934L79.4225 35.432L79.256 36.3963L72.1941 35.1703L71.6979 35.0842L71.6153 35.5809L71.3535 37.1548L71.272 37.6445L71.7612 37.7294L78.8239 38.9555Z" fill="#EE1199" stroke="#EE1199"/>
</svg>
